Race #6 for the cup.

General
Complete name                    : NASCAR 2011 Martinsville Goody's Fast Relief 500 HDTV_JHW.mp4
Format                           : MPEG-4
Format profile                   : Base Media / Version 2
Codec ID                         : mp42
File size                        : 2.21 GiB
Duration                         : 3h 46mn
Overall bit rate                 : 1 395 Kbps
Encoded date                     : UTC 2011-04-03 02:59:42
Tagged date                      : UTC 2011-04-03 02:59:42
Writing library                  : AVS 

Video
ID                               : 1
Format                           : AVC
Format/Info                      : Advanced Video Codec
Format profile                   : Main@L5.1
Format settings, CABAC           : Yes
Format settings, ReFrames        : 2 frames
Codec ID                         : avc1
Codec ID/Info                    : Advanced Video Coding
Duration                         : 3h 46mn
Bit rate mode                    : Variable
Bit rate                         : 1 197 Kbps
Width                            : 720 pixels
Height                           : 400 pixels
Display aspect ratio             : 16:9
Frame rate mode                  : Constant
Frame rate                       : 29.970 fps
Color space                      : YUV
Chroma subsampling               : 4:2:0
Bit depth                        : 8 bits
Scan type                        : Progressive
Bits/(Pixel*Frame)               : 0.139
Stream size                      : 1.90 GiB (86%)
Language                         : English

Audio
ID                               : 2
Format                           : AAC
Format/Info                      : Advanced Audio Codec
Format profile                   : LC
Codec ID                         : 40
Duration                         : 3h 46mn
Bit rate mode                    : Constant
Bit rate                         : 192 Kbps
Channel(s)                       : 2 channels
Channel positions                : Front: L R
Sampling rate                    : 48.0 KHz
Compression mode                 : Lossy
Stream size                      : 307 MiB (14%)
Language                         : English

This is why we watch folks. Boogity Boogity Boogity!!!
[img]http://img607.imageshack.us/img607/1834/vlcsnap2011040323h42m05.png[/img]
[img]http://img600.imageshack.us/img600/1763/vlcsnap2011040323h43m28.png[/img]
That mishap caused a 20 minutes or so delay while they repaired the safer barrier. Nobody hurt and all that in the first half, Good Finish an I wont spoil that. Enjoy and see ya next week in Texas.